<svg width="63" height="64" viewBox="0 0 63 64" fill="none" xmlns="http://www.w3.org/2000/svg">
<path d="M31.4991 10.5449C17.8379 10.5449 6.76172 18.8343 6.76172 29.0599C6.76172 35.2052 10.7622 40.6497 16.9205 44.0173C16.9028 44.0707 12.0143 53.0154 12.0143 53.0154C12.0143 53.0154 26.9434 47.2899 26.9847 47.2661C28.4495 47.47 29.9595 47.573 31.501 47.573C45.1622 47.573 56.2384 39.2836 56.2384 29.0599C56.2364 18.8343 45.1602 10.5449 31.4991 10.5449ZM19.6236 31.0378C18.5368 31.0378 17.6548 30.1508 17.6548 29.058C17.6548 27.9631 18.5368 27.0782 19.6236 27.0782C20.7103 27.0782 21.5923 27.9631 21.5923 29.058C21.5923 30.1508 20.7123 31.0378 19.6236 31.0378ZM27.4572 31.1209C26.3705 31.1209 25.4885 30.234 25.4885 29.1411C25.4885 28.0463 26.3705 27.1613 27.4572 27.1613C28.5459 27.1613 29.426 28.0463 29.426 29.1411C29.426 30.234 28.5459 31.1209 27.4572 31.1209ZM35.4129 31.1209C34.3262 31.1209 33.4442 30.234 33.4442 29.1411C33.4442 28.0463 34.3262 27.1613 35.4129 27.1613C36.5017 27.1613 37.3817 28.0463 37.3817 29.1411C37.3817 30.234 36.5017 31.1209 35.4129 31.1209ZM43.2879 31.1209C42.2012 31.1209 41.3192 30.234 41.3192 29.1411C41.3192 28.0463 42.2012 27.1613 43.2879 27.1613C44.3767 27.1613 45.2567 28.0463 45.2567 29.1411C45.2567 30.234 44.3767 31.1209 43.2879 31.1209Z" fill="white"/>
</svg>
