<svg width="46" height="40" viewBox="0 0 46 40" fill="none" xmlns="http://www.w3.org/2000/svg">
<path d="M44.938 20C44.938 30.7136 35.0978 39.5 22.8264 39.5C10.5551 39.5 0.714844 30.7136 0.714844 20C0.714844 9.28636 10.5551 0.5 22.8264 0.5C35.0978 0.5 44.938 9.28636 44.938 20Z" stroke="#DBDBDB"/>
<path d="M35.8237 11.6003C34.7906 10.6865 33.2383 10.6865 32.2052 11.6003L22.5275 20.1603C20.6192 21.8481 17.747 21.8313 15.8586 20.1213L14.0456 18.4795C13.0238 17.5542 11.4697 17.5451 10.4371 18.4584C9.21373 19.5405 9.22075 21.4515 10.452 22.5246L16.031 27.3866C17.9242 29.0366 20.7476 29.0262 22.6287 27.3624L35.8237 15.6914C37.0525 14.6045 37.0525 12.6872 35.8237 11.6003Z" fill="#0088CF"/>
</svg>
