<svg width="29" height="25" viewBox="0 0 29 25" fill="none" xmlns="http://www.w3.org/2000/svg">
    <path d="M11.4114 0.000183575C5.12296 0.000183575 0 4.46364 0 9.94258C0 15.4215 5.12324 19.885 11.4114 19.885C14.1312 19.885 16.6294 19.0474 18.5932 17.6565L26.3154 24.3845C26.7763 24.7861 27.5268 24.7861 27.9877 24.3845C28.4486 23.983 28.4486 23.3399 27.9877 22.9381L20.2655 16.21C21.865 14.4984 22.8232 12.3146 22.8232 9.94239C22.8232 4.46345 17.6997 0.000183575 11.4114 0.000183575ZM11.4114 2.05723C16.4238 2.05723 20.4618 5.57555 20.4618 9.94245C20.4618 14.3094 16.4236 17.8277 11.4114 17.8277C6.39931 17.8277 2.36114 14.3094 2.36114 9.94245C2.36114 5.57555 6.39931 2.05723 11.4114 2.05723Z" fill="#0088CF"/>
</svg>
