<svg width="35" height="34" viewBox="0 0 35 34" fill="none" xmlns="http://www.w3.org/2000/svg">
<path fill-rule="evenodd" clip-rule="evenodd" d="M19.5191 1.75345C19.1412 0.986209 18.3613 0.500488 17.5075 0.500488C16.6536 0.500488 15.8738 0.986209 15.4959 1.75345L11.3961 10.0763L2.22754 11.4192C1.38279 11.5429 0.681346 12.1364 0.41803 12.9502C0.154714 13.764 0.375172 14.657 0.986743 15.2539L7.61923 21.7273L6.05394 30.8725C5.90959 31.7159 6.25561 32.5683 6.94651 33.0712C7.6374 33.5742 8.55333 33.6404 9.30914 33.2421L17.5075 28.9218L25.7058 33.2421C26.4616 33.6404 27.3776 33.5742 28.0685 33.0712C28.7594 32.5683 29.1054 31.7159 28.961 30.8725L27.3957 21.7273L34.0282 15.2539C34.6398 14.657 34.8603 13.764 34.5969 12.9502C34.3336 12.1364 33.6322 11.5429 32.7874 11.4192L23.6189 10.0763L19.5191 1.75345Z" fill="#0088CF"/>
</svg>
