<svg width="16" height="15" viewBox="0 0 16 15" fill="none" xmlns="http://www.w3.org/2000/svg">
<path fill-rule="evenodd" clip-rule="evenodd" d="M8.85902 1.17389C8.69787 0.846752 8.36537 0.639648 8.0013 0.639648C7.63723 0.639648 7.30473 0.846752 7.14359 1.17389L5.3955 4.72264L1.48618 5.29522C1.12599 5.34798 0.826904 5.60102 0.714631 5.94801C0.602357 6.29499 0.696356 6.67575 0.957121 6.93026L3.78511 9.69041L3.1177 13.5898C3.05614 13.9494 3.20368 14.3129 3.49827 14.5273C3.79286 14.7417 4.18339 14.77 4.50566 14.6002L8.0013 12.758L11.4969 14.6002C11.8192 14.77 12.2097 14.7417 12.5043 14.5273C12.7989 14.3129 12.9465 13.9494 12.8849 13.5898L12.2175 9.69041L15.0455 6.93026C15.3062 6.67575 15.4002 6.29499 15.288 5.94801C15.1757 5.60102 14.8766 5.34798 14.5164 5.29522L10.6071 4.72264L8.85902 1.17389Z" fill="#FDD442"/>
</svg>
